<?xml version="1.0" encoding="UTF-8"?>
<svg width="761" height="188" version="1.1" viewBox="0 0 713 176" xmlns="http://www.w3.org/2000/svg">
<g>
<g transform="matrix(1.0065 0 0 1.0126 -4.299 -8.0083)">
<g transform="translate(6.679 -32.496)" shape-rendering="auto">
<path transform="matrix(.26458 0 0 .26458 -6.679 32.496)" d="m181.13 275.14a68.892 68.892 0 0 1-29.465 29.328l161.76 162.39 38.998-19.764zm213.36 214.19-38.998 19.764 81.963 82.283a68.892 68.892 0 0 1 29.471-29.332z" color="#000000" color-rendering="auto" dominant-baseline="auto" fill="#a730b8" image-rendering="auto" solid-color="#000000" style="font-feature-settings:normal;font-variant-alternates:normal;font-variant-caps:normal;font-variant-ligatures:normal;font-variant-numeric:normal;font-variant-position:normal;isolation:auto;mix-blend-mode:normal;shape-padding:0;text-decoration-color:#000000;text-decoration-line:none;text-decoration-style:solid;text-indent:0;text-orientation:mixed;text-transform:none;white-space:normal"/>
<path transform="matrix(.26458 0 0 .26458 -6.679 32.496)" d="m581.65 339.39-91.576 46.41 6.752 43.189 103.62-52.514a68.892 68.892 0 0 1-18.791-37.086zm-144.74 73.352-216.53 109.73a68.892 68.892 0 0 1 18.795 37.09l204.48-103.63z" color="#000000" color-rendering="auto" dominant-baseline="auto" fill="#5496be" image-rendering="auto" solid-color="#000000" style="font-feature-settings:normal;font-variant-alternates:normal;font-variant-caps:normal;font-variant-ligatures:normal;font-variant-numeric:normal;font-variant-position:normal;isolation:auto;mix-blend-mode:normal;shape-padding:0;text-decoration-color:#000000;text-decoration-line:none;text-decoration-style:solid;text-indent:0;text-orientation:mixed;text-transform:none;white-space:normal"/>
<path transform="matrix(.26458 0 0 .26458 -6.679 32.496)" d="m367.28 142.44-104.48 203.97 30.848 30.967 110.62-215.96a68.892 68.892 0 0 1-36.99-18.98zm-131.65 257.02-52.922 103.31a68.892 68.892 0 0 1 36.986 18.979l46.781-91.328z" color="#000000" color-rendering="auto" dominant-baseline="auto" fill="#ce3d1a" image-rendering="auto" solid-color="#000000" style="font-feature-settings:normal;font-variant-alternates:normal;font-variant-caps:normal;font-variant-ligatures:normal;font-variant-numeric:normal;font-variant-position:normal;isolation:auto;mix-blend-mode:normal;shape-padding:0;text-decoration-color:#000000;text-decoration-line:none;text-decoration-style:solid;text-indent:0;text-orientation:mixed;text-transform:none;white-space:normal"/>
<path transform="matrix(.26458 0 0 .26458 -6.679 32.496)" d="m150.77 304.92a68.892 68.892 0 0 1-34.416 7.1953 68.892 68.892 0 0 1-6.6504-0.69531l30.902 197.66a68.892 68.892 0 0 1 34.416-7.1953 68.892 68.892 0 0 1 6.6465 0.69531z" color="#000000" color-rendering="auto" dominant-baseline="auto" fill="#d0188f" image-rendering="auto" solid-color="#000000" style="font-feature-settings:normal;font-variant-alternates:normal;font-variant-caps:normal;font-variant-ligatures:normal;font-variant-numeric:normal;font-variant-position:normal;isolation:auto;mix-blend-mode:normal;shape-padding:0;text-decoration-color:#000000;text-decoration-line:none;text-decoration-style:solid;text-indent:0;text-orientation:mixed;text-transform:none;white-space:normal"/>
<path transform="matrix(.26458 0 0 .26458 -6.679 32.496)" d="m239.34 560.54a68.892 68.892 0 0 1 0.7207 13.877 68.892 68.892 0 0 1-7.2676 27.18l197.63 31.713a68.892 68.892 0 0 1-0.72266-13.879 68.892 68.892 0 0 1 7.2695-27.178z" color="#000000" color-rendering="auto" dominant-baseline="auto" fill="#5b36e9" image-rendering="auto" solid-color="#000000" style="font-feature-settings:normal;font-variant-alternates:normal;font-variant-caps:normal;font-variant-ligatures:normal;font-variant-numeric:normal;font-variant-position:normal;isolation:auto;mix-blend-mode:normal;shape-padding:0;text-decoration-color:#000000;text-decoration-line:none;text-decoration-style:solid;text-indent:0;text-orientation:mixed;text-transform:none;white-space:normal"/>
<path transform="matrix(.26458 0 0 .26458 -6.679 32.496)" d="m601.13 377.2-91.219 178.08a68.892 68.892 0 0 1 36.994 18.982l91.217-178.08a68.892 68.892 0 0 1-36.992-18.984z" color="#000000" color-rendering="auto" dominant-baseline="auto" fill="#30b873" image-rendering="auto" solid-color="#000000" style="font-feature-settings:normal;font-variant-alternates:normal;font-variant-caps:normal;font-variant-ligatures:normal;font-variant-numeric:normal;font-variant-position:normal;isolation:auto;mix-blend-mode:normal;shape-padding:0;text-decoration-color:#000000;text-decoration-line:none;text-decoration-style:solid;text-indent:0;text-orientation:mixed;text-transform:none;white-space:normal"/>
<path transform="matrix(.26458 0 0 .26458 -6.679 32.496)" d="m347.79 104.63-178.58 90.498a68.892 68.892 0 0 1 18.793 37.086l178.57-90.502a68.892 68.892 0 0 1-18.791-37.082z" color="#000000" color-rendering="auto" dominant-baseline="auto" fill="#f47601" image-rendering="auto" solid-color="#000000" style="font-feature-settings:normal;font-variant-alternates:normal;font-variant-caps:normal;font-variant-ligatures:normal;font-variant-numeric:normal;font-variant-position:normal;isolation:auto;mix-blend-mode:normal;shape-padding:0;text-decoration-color:#000000;text-decoration-line:none;text-decoration-style:solid;text-indent:0;text-orientation:mixed;text-transform:none;white-space:normal"/>
<path transform="matrix(.26458 0 0 .26458 -6.679 32.496)" d="m188.13 232.97a68.892 68.892 0 0 1 0.75781 14.096 68.892 68.892 0 0 1-7.1602 26.982l101.37 16.281 19.924-38.908zm173.74 27.9-19.926 38.912 239.51 38.467a68.892 68.892 0 0 1-0.69531-13.719 68.892 68.892 0 0 1 7.3496-27.324z" color="#000000" color-rendering="auto" dominant-baseline="auto" fill="#dbb210" image-rendering="auto" solid-color="#000000" style="font-feature-settings:normal;font-variant-alternates:normal;font-variant-caps:normal;font-variant-ligatures:normal;font-variant-numeric:normal;font-variant-position:normal;isolation:auto;mix-blend-mode:normal;shape-padding:0;text-decoration-color:#000000;text-decoration-line:none;text-decoration-style:solid;text-indent:0;text-orientation:mixed;text-transform:none;white-space:normal"/>
</g>
<g transform="translate(6.679 -32.496)" fill-opacity=".99597">
<circle transform="rotate(3.1178)" cx="106.27" cy="51.536" r="16.571" fill="#ffca00"/>
<ellipse transform="rotate(3.1178)" cx="171.43" cy="110.19" rx="16.571" ry="16.571" fill="#64ff00"/>
<circle transform="rotate(3.1178)" cx="135.76" cy="190.28" r="16.571" fill="#00a3ff"/>
<circle transform="rotate(3.1178)" cx="48.559" cy="181.11" r="16.571" fill="#9500ff"/>
<circle transform="rotate(3.1178)" cx="30.329" cy="95.367" r="16.571" fill="#f00"/>
</g>
</g>
</g>
<g>
<path d="m278.65 36.85c0.0288 10.885-0.0659 21.771 0.0645 32.656-3.996-4.827-10.049-7.6252-16.212-8.3057-6.8052-0.77851-14.056 0.21213-19.867 4.0309-5.9801 3.8707-9.9252 10.248-11.993 16.958-2.411 7.794-2.802 16.066-2.3596 24.165 0.48519 7.9431 2.177 16.054 6.5016 22.847 3.067 4.8895 7.7698 8.8212 13.323 10.532 5.2205 1.6423 10.847 1.565 16.19 0.60228 5.4256-1.0214 10.628-3.7058 14.176-7.9988 0.42516-0.62893 0.69809-0.84874 0.62923 0.0916 0.23019 2.4246 0.452 4.8647 1.0894 7.2237h21.965c-0.43701-7.3688-0.72844-14.749-0.64844-22.132v-82.544h-22.857v1.873zm38.562 0v9.3927a6.5585 6.5585 45 0 0 6.5585 6.5585h10.092a6.2071 6.2071 135 0 0 6.2071-6.2071v-5.0001a6.617 6.617 45 0 0-6.617-6.617h-14.367a1.873 1.873 135 0 0-1.873 1.873zm-248.04 5.0996v89.464a8.2395 8.2395 45 0 0 8.2395 8.2395h7.8625a7.7066 7.7066 135 0 0 7.7066-7.7066v-22.255a5.2001 5.2001 135 0 1 5.2001-5.2001h37.059a6.778 6.778 135 0 0 6.778-6.778v-5.6833a6.7907 6.7907 45 0 0-6.7907-6.7907h-37.36a4.886 4.886 45 0 1-4.886-4.886v-17.479a3.5427 3.5427 135 0 1 3.5427-3.5427h38.695a8.3641 8.3641 135 0 0 8.3641-8.3641v-2.7356a8.1542 8.1542 45 0 0-8.1542-8.1542h-64.383a1.873 1.873 135 0 0-1.873 1.873zm479.96 18.939c-3.7809-0.0275-7.6926 0.88342-10.686 3.2949-2.5218 1.9808-4.2834 4.7458-5.6172 7.625-0.17472-3.1697-0.33016-6.3442-0.75976-9.4922h-21.885c0.4839 7.509 0.72676 15.033 0.66211 22.558v54.778h22.857c0.0148-13.173-0.0297-26.347 0.0225-39.52 0.15909-4.7901 0.74175-9.7851 3.2328-13.982 1.7322-2.9181 4.775-5.0812 8.1895-5.418 3.9852-0.42238 7.9412 0.52408 11.815 1.3439v-19.553c-2.0484-0.96187-4.2674-1.5417-6.5346-1.6028-0.43172-0.0285-0.86523-0.023-1.2975-0.032zm45.18 0.0234c-7.1066 0.20062-14.439 1.386-20.605 5.123-4.3887 2.6295-7.9783 6.7396-9.4823 11.678-1.3642 4.4444-1.4253 9.2816-0.27163 13.779 0.98425 3.8299 3.3142 7.2225 6.3588 9.7155 3.1621 2.6705 6.9918 4.4071 10.94 5.5613 6.2111 1.9276 12.615 3.1099 18.96 4.4934 2.8017 0.73524 5.7948 1.4686 7.9974 3.4645 1.6718 1.6133 1.6811 4.4079 0.55407 6.3256-1.3829 2.0894-4.026 2.6986-6.3399 3.1192-3.1029 0.48988-6.2605 0.50696-9.3923 0.36917-0.46482-0.0248-1.2762-0.0815-1.8748-0.14163-2.679-0.32171-5.6459-0.69427-7.6486-2.6943-1.87-1.845-2.5943-4.4445-3.2715-6.9004-6.8411 1.025-13.683 2.048-20.523 3.0742 0.92636 3.482 1.9879 6.9846 3.9419 10.047 2.8838 4.7706 7.5191 8.3679 12.758 10.216 6.9578 2.5152 14.46 2.9735 21.799 2.8405 7.4178-0.23023 15.054-1.4978 21.504-5.3659 4.6991-2.7748 8.5968-7.1418 10.139-12.443 1.2719-4.2984 1.2565-8.9379 0.25399-13.289-1.3731-5.6352-5.4925-10.357-10.55-13.067-5.0852-2.7758-10.788-4.0639-16.354-5.4924-3.9266-0.99991-7.909-1.7089-11.832-2.66-2.0101-0.59619-4.1818-1.1425-5.7565-2.6068-1.4918-1.5032-1.5101-4.0729-0.42383-5.8047 1.2851-1.6472 3.4802-2.1179 5.4269-2.4963 3.5021-0.52049 7.102-0.57889 10.6 1.8e-4 2.4824 0.40383 5.0254 1.6144 6.2258 3.9389 0.83078 1.4492 1.0345 3.1282 1.3739 4.7349 6.9101-0.72299 13.82-1.445 20.73-2.166-0.68806-3.3149-1.5142-6.6597-3.243-9.6066-3.1178-5.6459-8.7232-9.5645-14.768-11.55-5.5293-1.8534-11.426-2.328-17.225-2.1966zm-408.42 0.0547c-7.485 0.10988-15.168 1.8683-21.325 6.29-5.8963 4.1572-10.023 10.506-12.049 17.38-2.2278 7.449-2.4929 15.354-1.8048 23.056 0.74978 7.6806 3.0085 15.462 7.9093 21.557 4.2287 5.3446 10.395 8.9711 16.994 10.527 6.1192 1.4521 12.524 1.5682 18.735 0.67726 6.6654-0.9776 13.189-3.7434 18.029-8.5121 3.7515-3.6248 6.3679-8.2558 8.1993-13.104 0.0269-0.44397 0.97206-1.4482 0.14968-1.374-7.2167-0.62715-14.434-1.2534-21.65-1.8794-0.68894 2.3846-1.5805 4.8733-3.5636 6.5004-2.7449 2.2858-6.5647 2.6407-9.9891 2.2571-3.5258-0.37323-6.7616-2.5475-8.4636-5.6537-2.0819-3.6841-2.6672-7.9893-2.8352-12.157h47.162c0.11311-8.616-0.55604-17.426-3.7422-25.514-2.5945-6.6573-7.2591-12.661-13.602-16.1-5.5124-3.0466-11.916-4.0884-18.154-3.9512zm278.72 0c-7.452 0.1102-15.1 1.8499-21.243 6.233-5.9136 4.1357-10.061 10.476-12.104 17.346-2.2512 7.4753-2.5258 15.414-1.8318 23.147 0.74916 7.7216 3.036 15.545 7.9866 21.654 4.2446 5.3188 10.414 8.9151 17.007 10.452 6.0925 1.4298 12.464 1.5421 18.646 0.65501 6.8103-0.99732 13.482-3.869 18.343-8.8306 3.6239-3.5894 6.1239-8.1403 7.9227-12.876 0.0677-0.46893 0.96045-1.4402 0.016-1.2929-7.1849-0.62374-14.37-1.2477-21.555-1.8708-0.69773 2.4333-1.6275 4.9789-3.6856 6.5995-2.7405 2.1997-6.4918 2.5339-9.8672 2.1585-3.5311-0.37168-6.7689-2.5551-8.4722-5.6646-2.0694-3.6853-2.6639-7.9812-2.8266-12.146h47.162c0.10933-8.648-0.55685-17.496-3.7822-25.606-2.6478-6.7618-7.4566-12.84-13.966-16.222-5.4195-2.8878-11.665-3.8673-17.75-3.7365zm209.14 0c-7.452 0.11027-15.1 1.85-21.243 6.233-5.8855 4.1165-10.023 10.417-12.074 17.251-2.2716 7.4701-2.5505 15.409-1.8719 23.143 0.73712 7.6607 2.9634 15.424 7.8185 21.527 4.2089 5.3868 10.383 9.0552 16.999 10.631 6.148 1.4772 12.588 1.5965 18.832 0.70182 6.778-0.99269 13.416-3.8407 18.273-8.759 3.6322-3.5797 6.1545-8.1192 7.9546-12.855 0.0284-0.44503 0.97526-1.4492 0.15367-1.3767-7.2181-0.62663-14.436-1.2535-21.654-1.8794-0.69216 2.4027-1.5973 4.9112-3.6074 6.5371-2.7442 2.2535-6.5386 2.601-9.9453 2.2209-3.5607-0.37443-6.8187-2.5932-8.5147-5.7393-2.0347-3.6705-2.6226-7.9343-2.7841-12.071h47.162c0.10966-8.6467-0.55731-17.493-3.78-25.602-2.6598-6.7936-7.5024-12.899-14.057-16.272-5.3993-2.8536-11.609-3.8196-17.661-3.6902zm-356.53 3.2227v75.463h22.857v-77.336h-22.857zm29.627 0.63086c8.9216 24.944 17.845 49.887 26.766 74.832h25.479c9.5051-25.779 19.012-51.557 28.518-77.336h-24.043c-5.2971 16.266-10.669 32.508-15.811 48.824-0.43805 1.4104-0.84917 2.8293-1.2729 4.2443-1.622-5.8564-3.3118-11.693-5.1741-17.478-3.7067-11.863-7.4098-23.728-11.119-35.59h-24.238c0.29882 0.83463 0.59765 1.6693 0.89648 2.5039zm-159.48 11.936c3.1341 0.078 6.23 1.5203 8.1292 4.0465 2.2354 2.8425 3.0748 6.4904 3.4861 10.012-8.1836-3e-3 -16.378 5e-3 -24.555-4e-3 0.33069-3.9958 1.3492-8.2392 4.2754-11.16 3.5473-3.5875 8.6641-2.8949 8.6641-2.8948zm278.72 0c3.1098 0.079 6.1866 1.4951 8.0852 3.9926 2.2658 2.849 3.1153 6.522 3.53 10.066-8.1836-3e-3 -16.378 5e-3 -24.555-4e-3 0.33062-4.0285 1.3676-8.3104 4.3458-11.231 2.2513-2.2254 5.516-2.9656 8.5936-2.824zm209.14 0c3.11 0.0796 6.1864 1.495 8.0852 3.9926 2.2694 2.8479 3.1147 6.522 3.53 10.066-8.1836-3e-3 -16.378 5e-3 -24.555-4e-3 0.3324-4.0275 1.3678-8.3108 4.3458-11.231 2.2528-2.2238 5.5153-2.9664 8.5936-2.824zm-409.28 0.96096c3.1544 0.11035 6.2726 1.5401 8.2082 4.0704 3.2364 4.1401 4.247 9.5064 4.6356 14.625 0.3299 5.9758 0.14275 12.112-1.7528 17.84-1.2693 3.7404-3.5836 7.4896-7.3718 9.0641-2.9443 1.185-6.3692 1.1951-9.329 0.0568-3.5008-1.3736-5.6197-4.8241-6.7234-8.2616-1.7782-5.5693-1.9299-11.501-1.7467-17.298 0.25062-4.8469 0.79941-9.8603 3.0928-14.218 1.4456-2.8214 4.1085-5.0568 7.2697-5.621 1.2197-0.25702 2.4748-0.30763 3.7175-0.25787z" fill="#fff"/>
</g>
<g>
<ellipse transform="matrix(.9985 .054721 -.05406 .99854 0 0)" cx="172.74" cy="70.595" rx="16.678" ry="16.779" fill="#64ff00" fill-opacity=".99597"/>
<path d="m150.59 82.92-24.386 12.434 1.798 11.571 27.592-14.069a18.345 18.457 0 0 1-5.0039-9.936zm-38.542 19.652-57.659 29.4a18.345 18.457 0 0 1 5.0049 9.937l54.452-27.765z" color="#000000" color-rendering="auto" dominant-baseline="auto" fill="#5496be" image-rendering="auto" shape-rendering="auto" solid-color="#000000" style="font-feature-settings:normal;font-variant-alternates:normal;font-variant-caps:normal;font-variant-ligatures:normal;font-variant-numeric:normal;font-variant-position:normal;isolation:auto;mix-blend-mode:normal;shape-padding:0;text-decoration-color:#000000;text-decoration-line:none;text-decoration-style:solid;text-indent:0;text-orientation:mixed;text-transform:none;white-space:normal"/>
</g>
<g>
<path d="m69.169 41.959v89.464a8.2395 8.2395 45 0 0 8.2395 8.2395h7.8625a7.7066 7.7066 135 0 0 7.7066-7.7066v-22.255a5.2001 5.2001 135 0 1 5.2001-5.2001h37.059a6.778 6.778 135 0 0 6.778-6.778v-5.6833a6.7907 6.7907 45 0 0-6.7907-6.7907h-37.36a4.886 4.886 45 0 1-4.886-4.886v-17.479a3.5427 3.5427 135 0 1 3.5427-3.5427h38.695a8.3641 8.3641 135 0 0 8.3641-8.3641v-2.7356a8.1542 8.1542 45 0 0-8.1542-8.1542h-64.383a1.873 1.873 135 0 0-1.873 1.873z" fill="#fff"/>
<path d="m155.65 93.024-24.291 47.711a18.345 18.457 0 0 1 9.8512 5.0857l24.29-47.711a18.345 18.457 0 0 1-9.8506-5.0862z" color="#000000" color-rendering="auto" dominant-baseline="auto" fill="#30b873" image-rendering="auto" shape-rendering="auto" solid-color="#000000" style="font-feature-settings:normal;font-variant-alternates:normal;font-variant-caps:normal;font-variant-ligatures:normal;font-variant-numeric:normal;font-variant-position:normal;isolation:auto;mix-blend-mode:normal;shape-padding:0;text-decoration-color:#000000;text-decoration-line:none;text-decoration-style:solid;text-indent:0;text-orientation:mixed;text-transform:none;white-space:normal"/>
</g>
<path transform="matrix(.26629 0 0 .26792 -4.299 -8.0083)" d="m476.72 125.33a68.892 68.892 0 0 1-29.471 29.332l141.27 141.81a68.892 68.892 0 0 1 29.469-29.332z" color="#000000" color-rendering="auto" dominant-baseline="auto" fill="#ebe305" image-rendering="auto" shape-rendering="auto" solid-color="#000000" style="font-feature-settings:normal;font-variant-alternates:normal;font-variant-caps:normal;font-variant-ligatures:normal;font-variant-numeric:normal;font-variant-position:normal;isolation:auto;mix-blend-mode:normal;shape-padding:0;text-decoration-color:#000000;text-decoration-line:none;text-decoration-style:solid;text-indent:0;text-orientation:mixed;text-transform:none;white-space:normal"/>
<path transform="matrix(.26629 0 0 .26792 -4.299 -8.0083)" d="m446.93 154.83a68.892 68.892 0 0 1-34.982 7.4824 68.892 68.892 0 0 1-6.0293-0.63281l15.818 101.29 43.162 6.9258zm-16 167.03 37.4 239.48a68.892 68.892 0 0 1 33.914-6.9434 68.892 68.892 0 0 1 7.207 0.79101l-35.357-226.41z" color="#000000" color-rendering="auto" dominant-baseline="auto" fill="#57c115" image-rendering="auto" shape-rendering="auto" solid-color="#000000" style="font-feature-settings:normal;font-variant-alternates:normal;font-variant-caps:normal;font-variant-ligatures:normal;font-variant-numeric:normal;font-variant-position:normal;isolation:auto;mix-blend-mode:normal;shape-padding:0;text-decoration-color:#000000;text-decoration-line:none;text-decoration-style:solid;text-indent:0;text-orientation:mixed;text-transform:none;white-space:normal"/>
</svg>